<?xml version="1.0" encoding="utf-8"?>
<!-- Generator: Adobe Illustrator 22.0.1, SVG Export Plug-In . SVG Version: 6.00 Build 0)  -->
<svg version="1.1" id="Layer_1" xmlns="http://www.w3.org/2000/svg" xmlns:xlink="http://www.w3.org/1999/xlink" x="0px" y="0px"
	 viewBox="0 0 1366 768" style="enable-background:new 0 0 1366 768;" xml:space="preserve">
<style type="text/css">
	.st0{fill:#EEEEEE;}
	.st1{fill:#263238;}
	.st2{fill:#C4CCCE;}
	.st3{fill:#727272;}
	.st4{fill:#455A64;}
	.st5{fill:none;stroke:#CCCCCC;stroke-width:6;stroke-miterlimit:10;}
	.st6{fill:none;stroke:#CCCCCC;stroke-width:6;stroke-linecap:round;stroke-miterlimit:10;}
	.st7{fill:none;stroke:#CCCCCC;stroke-width:5;stroke-linecap:round;stroke-miterlimit:10;}
	.st8{fill:none;stroke:#00FF00;stroke-miterlimit:10;}
	.st9{fill:none;stroke:#ED1E79;stroke-width:2;stroke-miterlimit:10;}
	.st10{fill:none;stroke:#0000FF;stroke-miterlimit:10;}
	.st11{fill:none;stroke:#0071BC;stroke-miterlimit:10;}
</style>
<g>
	<circle class="st0" cx="653.5" cy="384" r="230"/>
</g>
<g>
	<g>
		<path class="st1" d="M791,459.1c0,5.5-4.5,10-10,10H526c-5.5,0-10-4.5-10-10v-159c0-5.5,4.5-10,10-10h255c5.5,0,10,4.5,10,10
			V459.1z"/>
	</g>
	<path class="st2" d="M502.6,462.3h302c0,0,6.2,14.5-12.3,15.2s-279.1,0-279.1,0S497.3,477.5,502.6,462.3z"/>
	<path class="st3" d="M625.4,462.3c0,0-0.3,6.2,5.7,6.2s36,0,36,0s6-0.6,5-6.2H625.4z"/>
	<rect x="528" y="302.1" class="st4" width="249" height="148.5"/>
	<circle class="st5" cx="652.5" cy="356.5" r="35.3"/>
	<path class="st6" d="M652.5,399.8c41.5,0,46.8,21.3,46.8,21.3"/>
	<path class="st6" d="M653.5,399.8c-40,0-45.2,21.3-45.2,21.3"/>
	<line class="st7" x1="607.9" y1="422.1" x2="699.4" y2="422.1"/>
</g>
<polygon class="st8" points="407.1,537.6 412.5,588.5 365.7,567.7 "/>
<polygon class="st8" points="957.4,323.7 927.2,344 924.7,307.6 "/>
<circle class="st9" cx="360.6" cy="264.1" r="18"/>
<circle class="st10" cx="863.8" cy="564.6" r="8.2"/>
<rect x="771.6" y="123.1" class="st11" width="24" height="24"/>
</svg>
